<?xml version="1.0" encoding="UTF-8" standalone="no"?>
<svg
   xmlns:dc="http://purl.org/dc/elements/1.1/"
   xmlns:cc="http://creativecommons.org/ns#"
   xmlns:rdf="http://www.w3.org/1999/02/22-rdf-syntax-ns#"
   xmlns:svg="http://www.w3.org/2000/svg"
   xmlns="http://www.w3.org/2000/svg"
   xmlns:sodipodi="http://sodipodi.sourceforge.net/DTD/sodipodi-0.dtd"
   xmlns:inkscape="http://www.inkscape.org/namespaces/inkscape"
   inkscape:version="1.0 (4035a4fb49, 2020-05-01)"
   sodipodi:docname="arch_logo.svg"
   id="svg101"
   height="65px"
   version="1.1"
   viewBox="0 0 65 65"
   width="65px">
  <metadata
     id="metadata105">
    <rdf:RDF>
      <cc:Work
         rdf:about="">
        <dc:format>image/svg+xml</dc:format>
        <dc:type
           rdf:resource="http://purl.org/dc/dcmitype/StillImage" />
        <dc:title />
      </cc:Work>
    </rdf:RDF>
  </metadata>
  <sodipodi:namedview
     inkscape:document-rotation="0"
     inkscape:current-layer="svg101"
     inkscape:window-maximized="1"
     inkscape:window-y="25"
     inkscape:window-x="1920"
     inkscape:cy="26.366218"
     inkscape:cx="31.339056"
     inkscape:zoom="13.663479"
     showgrid="false"
     id="namedview103"
     inkscape:window-height="1148"
     inkscape:window-width="1920"
     inkscape:pageshadow="2"
     inkscape:pageopacity="0"
     guidetolerance="10"
     gridtolerance="10"
     objecttolerance="10"
     borderopacity="1"
     bordercolor="#666666"
     pagecolor="#ffffff" />
  <defs
     id="defs94">
    <linearGradient
       y2="79.519%"
       x1="54.638%"
       x2="28.129%"
       y1="26.924%"
       id="lg">
      <stop
         id="stop89"
         offset="0"
         stop-opacity="0"
         stop-color="#fff" />
      <stop
         id="stop91"
         offset="1"
         stop-opacity=".27451"
         stop-color="#fff" />
    </linearGradient>
  </defs>
  <path
     d="M 32.253906 0.20898438 C 29.404906 7.1932844 27.674906 11.769875 24.503906 18.546875 C 26.447906 20.607875 28.837844 22.997984 32.714844 25.708984 C 28.546844 23.993984 25.704078 22.277234 23.580078 20.490234 C 19.521078 28.960234 13.158906 41.020984 0.25390625 64.208984 C 10.393906 58.354984 18.254078 54.743234 25.580078 53.365234 C 25.266078 52.014234 25.099328 50.546484 25.111328 49.021484 L 25.119141 48.701172 C 25.280141 42.203172 28.662969 37.207875 32.667969 37.546875 C 36.671969 37.885875 39.789906 43.430688 39.628906 49.929688 C 39.597906 51.153687 39.455844 52.329875 39.214844 53.421875 C 46.461844 54.839875 54.248906 58.432984 64.253906 64.208984 C 62.280906 60.576984 60.512078 57.304547 58.830078 54.185547 C 56.181078 52.132547 53.419203 49.461359 47.783203 46.568359 C 51.657203 47.575359 54.433703 48.739109 56.595703 50.037109 C 39.497703 18.202109 38.116906 13.968984 32.253906 0.20898438 z M 32.445312 9.546875 A 2.4781468 2.4781468 0 0 1 32.5 9.546875 A 2.4781468 2.4781468 0 0 1 34.978516 12.025391 A 2.4781468 2.4781468 0 0 1 32.5 14.501953 A 2.4781468 2.4781468 0 0 1 30.021484 12.025391 A 2.4781468 2.4781468 0 0 1 32.445312 9.546875 z "
     id="path96" />
</svg>
